<svg width="9" height="18" viewBox="0 0 9 18" fill="none" xmlns="http://www.w3.org/2000/svg">
<path d="M5.736 0.439999V15.8L8.088 16.28C8.136 16.584 8.096 16.864 7.968 17.12C6.528 17.04 5.392 17 4.56 17C3.776 17 2.64 17.04 1.152 17.12C1.104 16.816 1.12 16.536 1.2 16.28C2.304 16.12 3.016 15.96 3.336 15.8V2.336L0.72 2.096C0.672 1.776 0.712 1.496 0.84 1.256C2.328 0.967999 3.64 0.607999 4.776 0.175999C5.08 0.191999 5.4 0.279999 5.736 0.439999Z" fill="black"/>
<path d="M5.736 0.439999H6.736V-0.191402L6.16593 -0.462862L5.736 0.439999ZM5.736 15.8H4.736V16.6165L5.53604 16.7798L5.736 15.8ZM8.088 16.28L9.07576 16.124L8.96758 15.4389L8.28796 15.3002L8.088 16.28ZM7.968 17.12L7.91253 18.1185L8.56858 18.1549L8.86243 17.5672L7.968 17.12ZM1.152 17.12L0.164237 17.276L0.304925 18.167L1.20569 18.1186L1.152 17.12ZM1.2 16.28L1.05657 15.2903L0.433353 15.3807L0.24552 15.9817L1.2 16.28ZM3.336 15.8L3.78321 16.6944L4.336 16.418V15.8H3.336ZM3.336 2.336H4.336V1.42354L3.42736 1.34018L3.336 2.336ZM0.72 2.096L-0.268936 2.24434L-0.152565 3.02015L0.62864 3.09182L0.72 2.096ZM0.84 1.256L0.649978 0.27422L0.181973 0.364801L-0.0423528 0.785411L0.84 1.256ZM4.776 0.175999L4.82856 -0.822618L4.61781 -0.833711L4.42055 -0.758697L4.776 0.175999ZM4.736 0.439999V15.8H6.736V0.439999H4.736ZM5.53604 16.7798L7.88804 17.2598L8.28796 15.3002L5.93596 14.8202L5.53604 16.7798ZM7.10024 16.436C7.11832 16.5505 7.10122 16.6175 7.07357 16.6728L8.86243 17.5672C9.09078 17.1105 9.15368 16.6175 9.07576 16.124L7.10024 16.436ZM8.02347 16.1215C6.57625 16.0411 5.4191 16 4.56 16V18C5.3649 18 6.47975 18.0389 7.91253 18.1185L8.02347 16.1215ZM4.56 16C3.7487 16 2.59136 16.0412 1.09831 16.1214L1.20569 18.1186C2.68864 18.0388 3.8033 18 4.56 18V16ZM2.13976 16.964C2.11221 16.7895 2.1267 16.6672 2.15448 16.5783L0.24552 15.9817C0.113299 16.4048 0.0957914 16.8425 0.164237 17.276L2.13976 16.964ZM1.34343 17.2697C1.90911 17.1877 2.39076 17.1034 2.78125 17.0157C3.15232 16.9323 3.5093 16.8314 3.78321 16.6944L2.88879 14.9056C2.8427 14.9286 2.68368 14.9877 2.34275 15.0643C2.02124 15.1366 1.59489 15.2123 1.05657 15.2903L1.34343 17.2697ZM4.336 15.8V2.336H2.336V15.8H4.336ZM3.42736 1.34018L0.81136 1.10018L0.62864 3.09182L3.24464 3.33182L3.42736 1.34018ZM1.70894 1.94766C1.68657 1.79857 1.71353 1.74313 1.72235 1.72659L-0.0423528 0.785411C-0.289529 1.24887 -0.342574 1.75342 -0.268936 2.24434L1.70894 1.94766ZM1.03002 2.23778C2.56126 1.94141 3.93054 1.56738 5.13145 1.11069L4.42055 -0.758697C3.34946 -0.351379 2.09474 -0.00541162 0.649978 0.27422L1.03002 2.23778ZM4.72344 1.17462C4.87098 1.18238 5.06277 1.227 5.30607 1.34286L6.16593 -0.462862C5.73723 -0.667007 5.28902 -0.798384 4.82856 -0.822618L4.72344 1.17462Z" fill="black"/>
</svg>
