<svg width="12" height="18" viewBox="0 0 12 18" fill="none" xmlns="http://www.w3.org/2000/svg">
<path d="M3.12 16.2H9.912L10.44 13.728C10.776 13.664 11.064 13.688 11.304 13.8C11.464 14.968 11.544 16.368 11.544 18H0.936V16.68C1.208 16.36 1.752 15.744 2.568 14.832C3.4 13.92 4.096 13.136 4.656 12.48C5.232 11.808 5.824 11.04 6.432 10.176C7.04 9.296 7.52 8.432 7.872 7.584C8.224 6.72 8.4 5.912 8.4 5.16C8.4 3.16 7.376 2.16 5.328 2.16C4.608 2.16 3.84 2.32 3.024 2.64L2.712 5.784C2.392 5.912 2.056 5.936 1.704 5.856C1.32 4.304 1.144 2.992 1.176 1.92C2.744 1.232 4.248 0.887999 5.688 0.887999C6.248 0.887999 6.744 0.911999 7.176 0.959999C7.608 0.992 8.064 1.088 8.544 1.248C9.04 1.408 9.464 1.64 9.816 1.944C10.168 2.248 10.456 2.672 10.68 3.216C10.92 3.744 11.04 4.416 11.04 5.232C11.04 6.08 10.688 7.08 9.984 8.232C9.28 9.368 8.512 10.4 7.68 11.328C6.848 12.256 5.904 13.248 4.848 14.304C3.792 15.36 3.192 15.968 3.048 16.128L3.12 16.2Z" fill="black"/>
<path d="M3.12 16.2L2.41289 16.9071L2.70579 17.2H3.12V16.2ZM9.912 16.2V17.2H10.721L10.8899 16.4089L9.912 16.2ZM10.44 13.728L10.2529 12.7457L9.60073 12.8699L9.46206 13.5191L10.44 13.728ZM11.304 13.8L12.2947 13.6643L12.2208 13.1243L11.7269 12.8938L11.304 13.8ZM11.544 18V19H12.544V18H11.544ZM0.936 18H-0.064V19H0.936V18ZM0.936 16.68L0.174061 16.0324L-0.064 16.3124V16.68H0.936ZM2.568 14.832L1.8292 14.158L1.82276 14.1652L2.568 14.832ZM4.656 12.48L3.89674 11.8292L3.89544 11.8307L4.656 12.48ZM6.432 10.176L7.24984 10.7515L7.25473 10.7444L6.432 10.176ZM7.872 7.584L8.79561 7.96739L8.79809 7.9613L7.872 7.584ZM3.024 2.64L2.65891 1.70903L2.08931 1.9324L2.02889 2.54125L3.024 2.64ZM2.712 5.784L3.08339 6.71248L3.64715 6.48697L3.70711 5.88275L2.712 5.784ZM1.704 5.856L0.733272 6.09618L0.881317 6.69453L1.48238 6.83113L1.704 5.856ZM1.176 1.92L0.774201 1.00427L0.195308 1.25828L0.176445 1.89016L1.176 1.92ZM7.176 0.959999L7.06557 1.95388L7.08382 1.95591L7.10213 1.95727L7.176 0.959999ZM8.544 1.248L8.22776 2.19673L8.237 2.19971L8.544 1.248ZM9.816 1.944L9.16238 2.70082L9.16238 2.70082L9.816 1.944ZM10.68 3.216L9.75532 3.59675L9.76218 3.6134L9.76963 3.6298L10.68 3.216ZM9.984 8.232L10.834 8.75878L10.8373 8.75345L9.984 8.232ZM7.68 11.328L8.42457 11.9955L7.68 11.328ZM4.848 14.304L4.14089 13.5969L4.848 14.304ZM3.048 16.128L2.30471 15.459L1.67002 16.1642L2.34089 16.8351L3.048 16.128ZM3.12 17.2H9.912V15.2H3.12V17.2ZM10.8899 16.4089L11.4179 13.9369L9.46206 13.5191L8.93406 15.9911L10.8899 16.4089ZM10.6271 14.7103C10.8169 14.6742 10.8802 14.7058 10.8811 14.7062L11.7269 12.8938C11.2478 12.6702 10.7351 12.6538 10.2529 12.7457L10.6271 14.7103ZM10.3133 13.9357C10.4653 15.0454 10.544 16.3975 10.544 18H12.544C12.544 16.3385 12.4627 14.8906 12.2947 13.6643L10.3133 13.9357ZM11.544 17H0.936V19H11.544V17ZM1.936 18V16.68H-0.064V18H1.936ZM1.69794 17.3276C1.9604 17.0189 2.49601 16.4122 3.31324 15.4988L1.82276 14.1652C1.00799 15.0758 0.455598 15.7011 0.174061 16.0324L1.69794 17.3276ZM3.30677 15.506C4.14331 14.589 4.84713 13.7963 5.41656 13.1293L3.89544 11.8307C3.34487 12.4757 2.65669 13.251 1.82923 14.158L3.30677 15.506ZM5.41526 13.1308C6.01546 12.4306 6.62688 11.6367 7.24981 10.7515L5.61419 9.60051C5.02112 10.4433 4.44854 11.1854 3.89674 11.8292L5.41526 13.1308ZM7.25473 10.7444C7.89639 9.81572 8.41259 8.89006 8.79559 7.96738L6.94841 7.20062C6.62741 7.97394 6.18361 8.77628 5.60927 9.60757L7.25473 10.7444ZM8.79809 7.9613C9.18754 7.00538 9.4 6.0684 9.4 5.16H7.4C7.4 5.7556 7.26046 6.43462 6.94591 7.2067L8.79809 7.9613ZM9.4 5.16C9.4 3.99976 9.10148 2.9473 8.33067 2.19456C7.56426 1.44611 6.50027 1.16 5.328 1.16V3.16C6.20373 3.16 6.67574 3.37389 6.93333 3.62544C7.18652 3.8727 7.4 4.32024 7.4 5.16H9.4ZM5.328 1.16C4.45915 1.16 3.56667 1.35304 2.65891 1.70903L3.38909 3.57097C4.11333 3.28696 4.75685 3.16 5.328 3.16V1.16ZM2.02889 2.54125L1.71689 5.68525L3.70711 5.88275L4.01911 2.73875L2.02889 2.54125ZM2.34061 4.85552C2.21821 4.90448 2.08972 4.91816 1.92562 4.88087L1.48238 6.83113C2.02228 6.95384 2.56579 6.91952 3.08339 6.71248L2.34061 4.85552ZM2.67473 5.61582C2.30299 4.11336 2.14725 2.89821 2.17555 1.94984L0.176445 1.89016C0.140755 3.08579 0.337014 4.49464 0.733272 6.09618L2.67473 5.61582ZM1.5778 2.83573C3.04271 2.19296 4.40993 1.888 5.688 1.888V-0.112001C4.08607 -0.112001 2.44529 0.271038 0.774201 1.00427L1.5778 2.83573ZM5.688 1.888C6.22101 1.888 6.67892 1.91092 7.06557 1.95388L7.28643 -0.0338845C6.80908 -0.0869236 6.27499 -0.112001 5.688 -0.112001V1.888ZM7.10213 1.95727C7.43921 1.98224 7.81346 2.05858 8.22777 2.19668L8.86023 0.299316C8.31454 0.117421 7.77679 0.00176287 7.24987 -0.0372686L7.10213 1.95727ZM8.237 2.19971C8.62093 2.32356 8.92324 2.4943 9.16238 2.70082L10.4696 1.18718C10.0048 0.785703 9.45907 0.492441 8.851 0.296291L8.237 2.19971ZM9.16238 2.70082C9.36861 2.87893 9.57558 3.16023 9.75532 3.59675L11.6047 2.83525C11.3364 2.18376 10.9674 1.61707 10.4696 1.18718L9.16238 2.70082ZM9.76963 3.6298C9.93165 3.98624 10.04 4.5046 10.04 5.232H12.04C12.04 4.3274 11.9084 3.50176 11.5904 2.8022L9.76963 3.6298ZM10.04 5.232C10.04 5.81729 9.79038 6.63111 9.13072 7.71055L10.8373 8.75345C11.5856 7.52889 12.04 6.3427 12.04 5.232H10.04ZM9.13399 7.70523C8.45872 8.79487 7.72551 9.77921 6.93543 10.6605L8.42457 11.9955C9.29849 11.0208 10.1013 9.94113 10.834 8.75877L9.13399 7.70523ZM6.93543 10.6605C6.11765 11.5726 5.18647 12.5513 4.14089 13.5969L5.55511 15.0111C6.62153 13.9447 7.57835 12.9394 8.42457 11.9955L6.93543 10.6605ZM4.14089 13.5969C3.09799 14.6398 2.47142 15.2738 2.30471 15.459L3.79129 16.797C3.91258 16.6622 4.48601 16.0802 5.55511 15.0111L4.14089 13.5969ZM2.34089 16.8351L2.41289 16.9071L3.82711 15.4929L3.75511 15.4209L2.34089 16.8351Z" fill="black"/>
</svg>
