<svg width="11" height="19" viewBox="0 0 11 19" fill="none" xmlns="http://www.w3.org/2000/svg">
<path d="M10.016 13.68C10.016 15.088 9.464 16.232 8.36 17.112C7.272 17.976 5.952 18.408 4.4 18.408C2.896 18.408 1.464 18.104 0.104 17.496C0.152 15.912 0.352 14.6 0.704 13.56C0.768 13.544 0.856 13.536 0.968 13.536C1.112 13.536 1.312 13.584 1.568 13.68L1.976 16.776C2.712 17.032 3.432 17.16 4.136 17.16C5.096 17.16 5.888 16.856 6.512 16.248C7.152 15.64 7.472 14.8 7.472 13.728C7.456 11.152 5.984 9.832 3.056 9.768V8.808C4.272 8.76 5.248 8.392 5.984 7.704C6.736 7.016 7.112 6.168 7.112 5.16C7.096 4.104 6.832 3.328 6.32 2.832C5.808 2.336 5.144 2.088 4.328 2.088C3.704 2.088 3.064 2.232 2.408 2.52L1.952 5.52C1.76 5.616 1.56 5.664 1.352 5.664C1.24 5.664 1.152 5.656 1.088 5.64C0.72 4.2 0.536 2.928 0.536 1.824C1.944 1.216 3.392 0.903999 4.88 0.887999C6.192 0.871999 7.256 1.208 8.072 1.896C8.904 2.568 9.32 3.592 9.32 4.968C9.32 5.976 8.96 6.856 8.24 7.608C7.52 8.36 6.664 8.848 5.672 9.072V9.168C7.128 9.376 8.216 9.848 8.936 10.584C9.656 11.304 10.016 12.336 10.016 13.68Z" fill="black"/>
<path d="M8.36 17.112L8.98188 17.8951L8.98331 17.894L8.36 17.112ZM0.104 17.496L-0.895541 17.4657L-0.915836 18.1355L-0.30413 18.4089L0.104 17.496ZM0.704 13.56L0.461464 12.5899L-0.0681861 12.7223L-0.243216 13.2394L0.704 13.56ZM1.568 13.68L2.55943 13.5493L2.48102 12.9544L1.91912 12.7437L1.568 13.68ZM1.976 16.776L0.984572 16.9067L1.06513 17.5179L1.64748 17.7205L1.976 16.776ZM6.512 16.248L5.8232 15.5229L5.81414 15.5318L6.512 16.248ZM7.472 13.728H8.47202L8.47198 13.7218L7.472 13.728ZM3.056 9.768H2.056V10.7464L3.03415 10.7678L3.056 9.768ZM3.056 8.808L3.01656 7.80878L2.056 7.84669V8.808H3.056ZM5.984 7.704L5.30895 6.96615L5.30112 6.97347L5.984 7.704ZM7.112 5.16H8.112V5.15242L8.11189 5.14485L7.112 5.16ZM2.408 2.52L2.00601 1.60435L1.50206 1.8256L1.41936 2.36973L2.408 2.52ZM1.952 5.52L2.39922 6.41442L2.86276 6.18265L2.94064 5.67027L1.952 5.52ZM1.088 5.64L0.119137 5.8876L0.266817 6.46547L0.845454 6.61014L1.088 5.64ZM0.536 1.824L0.139564 0.905937L-0.464 1.16657V1.824H0.536ZM4.88 0.887999L4.89075 1.88794L4.89219 1.88792L4.88 0.887999ZM8.072 1.896L7.4274 2.66052L7.43546 2.66732L7.44366 2.67394L8.072 1.896ZM8.24 7.608L8.96231 8.29957L8.24 7.608ZM5.672 9.072L5.45174 8.09656L4.672 8.27263V9.072H5.672ZM5.672 9.168H4.672V10.0353L5.53058 10.1579L5.672 9.168ZM8.936 10.584L8.22112 11.2833L8.22889 11.2911L8.936 10.584ZM9.016 13.68C9.016 14.7826 8.60341 15.6392 7.73669 16.33L8.98331 17.894C10.3246 16.8248 11.016 15.3934 11.016 13.68H9.016ZM7.73812 16.3289C6.84771 17.036 5.75415 17.408 4.4 17.408V19.408C6.14985 19.408 7.69629 18.916 8.98188 17.8951L7.73812 16.3289ZM4.4 17.408C3.03526 17.408 1.74246 17.1331 0.512131 16.5831L-0.30413 18.4089C1.18554 19.0749 2.75674 19.408 4.4 19.408V17.408ZM1.10354 17.5263C1.14975 16.0014 1.34154 14.7955 1.65122 13.8806L-0.243216 13.2394C-0.637543 14.4045 -0.845751 15.8226 -0.895541 17.4657L1.10354 17.5263ZM0.946536 14.5301C0.929725 14.5343 0.917919 14.5364 0.912463 14.5373C0.90685 14.5381 0.905296 14.5382 0.908536 14.5379C0.911682 14.5376 0.918184 14.5371 0.928468 14.5367C0.938697 14.5363 0.951786 14.536 0.968 14.536V12.536C0.822518 12.536 0.640898 12.545 0.461464 12.5899L0.946536 14.5301ZM0.968 14.536C0.93585 14.536 0.939419 14.5316 0.992627 14.5444C1.04215 14.5563 1.11567 14.5784 1.21688 14.6163L1.91912 12.7437C1.6331 12.6364 1.29619 12.536 0.968 12.536V14.536ZM0.576572 13.8107L0.984572 16.9067L2.96743 16.6453L2.55943 13.5493L0.576572 13.8107ZM1.64748 17.7205C2.47789 18.0093 3.30886 18.16 4.136 18.16V16.16C3.55514 16.16 2.94611 16.0547 2.30452 15.8315L1.64748 17.7205ZM4.136 18.16C5.32767 18.16 6.37931 17.7735 7.20987 16.9642L5.81414 15.5318C5.3967 15.9385 4.86434 16.16 4.136 16.16V18.16ZM7.20075 16.973C8.08105 16.1367 8.472 15.0109 8.472 13.728H6.472C6.472 14.5891 6.22295 15.1433 5.82325 15.523L7.20075 16.973ZM8.47198 13.7218C8.46279 12.2422 8.0285 10.9626 7.02362 10.0615C6.04129 9.18061 4.66902 8.80302 3.07785 8.76824L3.03415 10.7678C4.37098 10.797 5.19871 11.1114 5.68838 11.5505C6.1555 11.9694 6.46521 12.6378 6.47202 13.7342L8.47198 13.7218ZM4.056 9.768V8.808H2.056V9.768H4.056ZM3.09544 9.80722C4.49911 9.75181 5.72092 9.3188 6.66688 8.43453L5.30112 6.97347C4.77508 7.4652 4.04489 7.76819 3.01656 7.80878L3.09544 9.80722ZM6.65901 8.4418C7.61544 7.56678 8.112 6.45219 8.112 5.16H6.112C6.112 5.88381 5.85656 6.46522 5.30899 6.96619L6.65901 8.4418ZM8.11189 5.14485C8.09379 3.95037 7.79355 2.86721 7.0158 2.11376L5.6242 3.55024C5.87045 3.78878 6.09821 4.25762 6.11212 5.17515L8.11189 5.14485ZM7.0158 2.11376C6.28999 1.41063 5.36311 1.088 4.328 1.088V3.088C4.92489 3.088 5.32601 3.26136 5.6242 3.55024L7.0158 2.11376ZM4.328 1.088C3.54658 1.088 2.77005 1.26892 2.00601 1.60435L2.80999 3.43564C3.35795 3.19508 3.86142 3.088 4.328 3.088V1.088ZM1.41936 2.36973L0.963356 5.36973L2.94064 5.67027L3.39664 2.67027L1.41936 2.36973ZM1.50478 4.62557C1.44704 4.65444 1.3997 4.664 1.352 4.664V6.664C1.7203 6.664 2.07296 6.57756 2.39922 6.41442L1.50478 4.62557ZM1.352 4.664C1.33579 4.664 1.3227 4.66371 1.31247 4.6633C1.30219 4.66289 1.29569 4.66239 1.29254 4.66211C1.2893 4.66181 1.29086 4.66185 1.29647 4.66274C1.30193 4.6636 1.31373 4.66566 1.33055 4.66986L0.845454 6.61014C1.02489 6.655 1.20652 6.664 1.352 6.664V4.664ZM2.05686 5.3924C1.70291 4.00737 1.536 2.82139 1.536 1.824H-0.464C-0.464 3.03461 -0.26291 4.39263 0.119137 5.8876L2.05686 5.3924ZM0.932436 2.74206C2.2224 2.18503 3.53957 1.90247 4.89075 1.88794L4.86925 -0.111944C3.24443 -0.0944715 1.6656 0.246966 0.139564 0.905937L0.932436 2.74206ZM4.89219 1.88792C6.02133 1.87415 6.83445 2.16058 7.4274 2.66052L8.7166 1.13148C7.67755 0.255417 6.36267 -0.130157 4.86781 -0.111927L4.89219 1.88792ZM7.44366 2.67394C7.9762 3.10407 8.32 3.80029 8.32 4.968H10.32C10.32 3.38371 9.8318 2.03193 8.70034 1.11806L7.44366 2.67394ZM8.32 4.968C8.32 5.70906 8.06598 6.34377 7.51769 6.91643L8.96231 8.29957C9.85402 7.36822 10.32 6.24294 10.32 4.968H8.32ZM7.51769 6.91643C6.93011 7.53012 6.24738 7.9169 5.45174 8.09656L5.89226 10.0474C7.08063 9.7791 8.10989 9.18987 8.96231 8.29957L7.51769 6.91643ZM4.672 9.072V9.168H6.672V9.072H4.672ZM5.53058 10.1579C6.85934 10.3478 7.70878 10.7595 8.22117 11.2833L9.65084 9.88471C8.72322 8.93648 7.39666 8.40423 5.81342 8.17805L5.53058 10.1579ZM8.22889 11.2911C8.70717 11.7694 9.016 12.5132 9.016 13.68H11.016C11.016 12.1588 10.6048 10.8386 9.64311 9.87689L8.22889 11.2911Z" fill="black"/>
</svg>
