<svg width="26" height="4" viewBox="0 0 26 4" fill="none" xmlns="http://www.w3.org/2000/svg">
<path d="M0.128 1.8C0.128 1.496 0.304 1.2 0.656 0.912C1.008 0.608 1.368 0.456 1.736 0.456C2.136 0.456 2.472 0.632 2.744 0.984C3.016 1.32 3.152 1.664 3.152 2.016C3.152 2.336 2.976 2.64 2.624 2.928C2.288 3.216 1.92 3.36 1.52 3.36C1.152 3.36 0.824 3.192 0.536 2.856C0.264 2.504 0.128 2.152 0.128 1.8ZM11.0968 1.8C11.0968 1.496 11.2728 1.2 11.6248 0.912C11.9768 0.608 12.3368 0.456 12.7048 0.456C13.1048 0.456 13.4408 0.632 13.7128 0.984C13.9848 1.32 14.1208 1.664 14.1208 2.016C14.1208 2.336 13.9448 2.64 13.5928 2.928C13.2568 3.216 12.8888 3.36 12.4888 3.36C12.1208 3.36 11.7928 3.192 11.5048 2.856C11.2328 2.504 11.0968 2.152 11.0968 1.8ZM22.0655 1.8C22.0655 1.496 22.2415 1.2 22.5935 0.912C22.9455 0.608 23.3055 0.456 23.6735 0.456C24.0735 0.456 24.4095 0.632 24.6815 0.984C24.9535 1.32 25.0895 1.664 25.0895 2.016C25.0895 2.336 24.9135 2.64 24.5615 2.928C24.2255 3.216 23.8575 3.36 23.4575 3.36C23.0895 3.36 22.7615 3.192 22.4735 2.856C22.2015 2.504 22.0655 2.152 22.0655 1.8Z" fill="black"/>
<path d="M0.656 0.912001L1.28924 1.68596L1.29954 1.67753L1.30962 1.66882L0.656 0.912001ZM2.744 0.983999L1.95271 1.59545L1.95963 1.6044L1.96676 1.6132L2.744 0.983999ZM2.624 2.928L1.99076 2.15404L1.9819 2.16129L1.97321 2.16874L2.624 2.928ZM0.536 2.856L-0.255285 3.46745L-0.23977 3.48753L-0.223257 3.50679L0.536 2.856ZM1.128 1.8C1.128 1.85081 1.11101 1.87542 1.11954 1.86107C1.13232 1.83957 1.17616 1.77848 1.28924 1.68596L0.0227624 0.138042C-0.443683 0.51968 -0.872 1.07144 -0.872 1.8H1.128ZM1.30962 1.66882C1.52935 1.47906 1.66604 1.456 1.736 1.456V-0.544001C1.06996 -0.544001 0.486652 -0.263058 0.00238025 0.155176L1.30962 1.66882ZM1.736 1.456C1.78862 1.456 1.84579 1.45707 1.95271 1.59545L3.53529 0.372553C3.09821 -0.193068 2.48338 -0.544001 1.736 -0.544001V1.456ZM1.96676 1.6132C2.12852 1.81302 2.152 1.94167 2.152 2.016H4.152C4.152 1.38633 3.90348 0.826975 3.52125 0.354801L1.96676 1.6132ZM2.152 2.016C2.152 1.98319 2.16328 1.96793 2.15457 1.98296C2.14177 2.00509 2.09967 2.06494 1.99076 2.15404L3.25724 3.70196C3.73939 3.30747 4.152 2.74664 4.152 2.016H2.152ZM1.97321 2.16874C1.79779 2.31911 1.65541 2.36 1.52 2.36V4.36C2.18459 4.36 2.77821 4.1129 3.27479 3.68726L1.97321 2.16874ZM1.52 2.36C1.50309 2.36 1.43549 2.36881 1.29526 2.20521L-0.223257 3.50679C0.21251 4.01518 0.800907 4.36 1.52 4.36V2.36ZM1.32729 2.24455C1.15437 2.02078 1.128 1.87798 1.128 1.8H-0.872C-0.872 2.42603 -0.626367 2.98722 -0.255285 3.46745L1.32729 2.24455ZM11.6248 0.912001L12.258 1.68596L12.2683 1.67753L12.2784 1.66882L11.6248 0.912001ZM13.7128 0.983999L12.9215 1.59545L12.9284 1.6044L12.9355 1.6132L13.7128 0.983999ZM13.5928 2.928L12.9595 2.15404L12.9507 2.16129L12.942 2.16874L13.5928 2.928ZM11.5048 2.856L10.7135 3.46745L10.729 3.48753L10.7455 3.50679L11.5048 2.856ZM12.0968 1.8C12.0968 1.85081 12.0798 1.87542 12.0883 1.86107C12.1011 1.83957 12.1449 1.77848 12.258 1.68596L10.9915 0.138042C10.5251 0.51968 10.0968 1.07144 10.0968 1.8H12.0968ZM12.2784 1.66882C12.4981 1.47906 12.6348 1.456 12.7048 1.456V-0.544001C12.0387 -0.544001 11.4554 -0.263058 10.9711 0.155176L12.2784 1.66882ZM12.7048 1.456C12.7574 1.456 12.8145 1.45707 12.9215 1.59545L14.504 0.372553C14.067 -0.193068 13.4521 -0.544001 12.7048 -0.544001V1.456ZM12.9355 1.6132C13.0973 1.81302 13.1208 1.94167 13.1208 2.016H15.1208C15.1208 1.38633 14.8722 0.826975 14.49 0.354801L12.9355 1.6132ZM13.1208 2.016C13.1208 1.98319 13.132 1.96793 13.1233 1.98296C13.1105 2.00509 13.0684 2.06494 12.9595 2.15404L14.226 3.70196C14.7081 3.30747 15.1208 2.74664 15.1208 2.016H13.1208ZM12.942 2.16874C12.7665 2.31911 12.6242 2.36 12.4888 2.36V4.36C13.1533 4.36 13.747 4.1129 14.2435 3.68726L12.942 2.16874ZM12.4888 2.36C12.4718 2.36 12.4042 2.36881 12.264 2.20521L10.7455 3.50679C11.1813 4.01518 11.7697 4.36 12.4888 4.36V2.36ZM12.296 2.24455C12.1231 2.02078 12.0968 1.87798 12.0968 1.8H10.0968C10.0968 2.42603 10.3424 2.98722 10.7135 3.46745L12.296 2.24455ZM22.5935 0.912001L23.2267 1.68596L23.237 1.67753L23.2471 1.66882L22.5935 0.912001ZM24.6815 0.983999L23.8902 1.59545L23.8971 1.6044L23.9043 1.6132L24.6815 0.983999ZM24.5615 2.928L23.9283 2.15404L23.9194 2.16129L23.9107 2.16874L24.5615 2.928ZM22.4735 2.856L21.6822 3.46745L21.6977 3.48753L21.7142 3.50679L22.4735 2.856ZM23.0655 1.8C23.0655 1.85081 23.0485 1.87542 23.057 1.86107C23.0698 1.83957 23.1137 1.77848 23.2267 1.68596L21.9603 0.138042C21.4938 0.51968 21.0655 1.07144 21.0655 1.8H23.0655ZM23.2471 1.66882C23.4668 1.47906 23.6035 1.456 23.6735 1.456V-0.544001C23.0075 -0.544001 22.4242 -0.263058 21.9399 0.155176L23.2471 1.66882ZM23.6735 1.456C23.7261 1.456 23.7833 1.45707 23.8902 1.59545L25.4728 0.372553C25.0357 -0.193068 24.4209 -0.544001 23.6735 -0.544001V1.456ZM23.9043 1.6132C24.066 1.81302 24.0895 1.94167 24.0895 2.016H26.0895C26.0895 1.38633 25.841 0.826975 25.4587 0.354801L23.9043 1.6132ZM24.0895 2.016C24.0895 1.98319 24.1008 1.96793 24.0921 1.98296C24.0793 2.00509 24.0372 2.06494 23.9283 2.15404L25.1947 3.70196C25.6769 3.30747 26.0895 2.74664 26.0895 2.016H24.0895ZM23.9107 2.16874C23.7353 2.31911 23.5929 2.36 23.4575 2.36V4.36C24.1221 4.36 24.7157 4.1129 25.2123 3.68726L23.9107 2.16874ZM23.4575 2.36C23.4406 2.36 23.373 2.36881 23.2328 2.20521L21.7142 3.50679C22.15 4.01518 22.7384 4.36 23.4575 4.36V2.36ZM23.2648 2.24455C23.0919 2.02078 23.0655 1.87798 23.0655 1.8H21.0655C21.0655 2.42603 21.3111 2.98722 21.6822 3.46745L23.2648 2.24455Z" fill="black"/>
</svg>
